FAILT01_SDP01_grf.mot
version=1
nRows=22
nColumns=19
inDegrees=yes
endheader
time	ground_force_vx	ground_force_vy	ground_force_vz	ground_force_px	ground_force_py	ground_force_pz	1_ground_force_vx	1_ground_force_vy	1_ground_force_vz	1_ground_force_px	1_ground_force_py	1_ground_force_pz	ground_torque_x	ground_torque_y	ground_torque_z	1_ground_torque_x	1_ground_torque_y	1_ground_torque_z
        1.1149998903	        0.0000000000	        0.0000000000	        0.0000000000	        0.0000000000	        0.0000000000	        0.0000000000	      -31.5575069045	      424.4687227620	       20.1538498690	        0.0690992488	        0.2157400083	        0.1076736908	        0.0000000000	        0.0000000000	        0.0000000000	        0.0000000000	       -1.8572598984	        0.0000000000
        1.1159999371	        0.0000000000	        0.0000000000	        0.0000000000	        0.0000000000	        0.0000000000	        0.0000000000	      -31.5405186231	      424.1805570549	       20.3862776538	        0.0683810371	        0.2157400083	        0.1061505251	        0.0000000000	        0.0000000000	        0.0000000000	        0.0000000000	       -1.8456106177	        0.0000000000
        1.1169998646	        0.0000000000	        0.0000000000	        0.0000000000	        0.0000000000	        0.0000000000	        0.0000000000	      -31.5280176802	      423.8960166624	       20.6222799993	        0.0683845449	        0.2157400083	        0.1073506050	        0.0000000000	        0.0000000000	        0.0000000000	        0.0000000000	       -1.8333837145	        0.0000000000
        1.1179999113	        0.0000000000	        0.0000000000	        0.0000000000	        0.0000000000	        0.0000000000	        0.0000000000	      -31.5197725928	      423.6144078552	       20.8612263707	        0.0687187377	        0.2157400083	        0.1055022799	        0.0000000000	        0.0000000000	        0.0000000000	        0.0000000000	       -1.8205823483	        0.0000000000
        1.1189999580	        0.0000000000	        0.0000000000	        0.0000000000	        0.0000000000	        0.0000000000	        0.0000000000	      -31.5155280142	      423.3350463490	       21.1024700335	        0.0682587701	        0.2157400083	        0.1080986751	        0.0000000000	        0.0000000000	        0.0000000000	        0.0000000000	       -1.8072134374	        0.0000000000
        1.1199998856	        0.0000000000	        0.0000000000	        0.0000000000	        0.0000000000	        0.0000000000	        0.0000000000	      -31.5150055582	      423.0572605460	       21.3453518276	        0.0688766826	        0.2157400083	        0.1072738095	        0.0000000000	        0.0000000000	        0.0000000000	        0.0000000000	       -1.7932877687	        0.0000000000
        1.1209999323	        0.0000000000	        0.0000000000	        0.0000000000	        0.0000000000	        0.0000000000	        0.0000000000	      -31.5179048708	      422.7803947226	       21.5892041080	        0.0682248896	        0.2157400083	        0.1066342361	        0.0000000000	        0.0000000000	        0.0000000000	        0.0000000000	       -1.7788200920	        0.0000000000
        1.1219998598	        0.0000000000	        0.0000000000	        0.0000000000	        0.0000000000	        0.0000000000	        0.0000000000	      -31.5239049431	      422.5038121395	       21.8333548240	        0.0693668407	        0.2157400083	        0.1069231242	        0.0000000000	        0.0000000000	        0.0000000000	        0.0000000000	       -1.7638291982	        0.0000000000
        1.1229999065	        0.0000000000	        0.0000000000	        0.0000000000	        0.0000000000	        0.0000000000	        0.0000000000	      -31.5326656587	      422.2268980529	       22.0771317085	        0.0732463387	        0.2157400083	        0.1052026754	        0.0000000000	        0.0000000000	        0.0000000000	        0.0000000000	       -1.7483379763	        0.0000000000
        1.1239999533	        0.0000000000	        0.0000000000	        0.0000000000	        0.0000000000	        0.0000000000	        0.0000000000	      -31.5438295614	      421.9490626052	       22.3198665484	        0.0684152191	        0.2157400083	        0.1060421097	        0.0000000000	        0.0000000000	        0.0000000000	        0.0000000000	       -1.7323734460	        0.0000000000
        1.1249998808	        0.0000000000	        0.0000000000	        0.0000000000	        0.0000000000	        0.0000000000	        0.0000000000	      -31.5570238250	      421.6697435707	       22.5608995076	        0.0686175987	        0.2157400083	        0.1054491985	        0.0000000000	        0.0000000000	        0.0000000000	        0.0000000000	       -1.7159667621	        0.0000000000
        1.1259999275	        0.0000000000	        0.0000000000	        0.0000000000	        0.0000000000	        0.0000000000	        0.0000000000	      -31.5718624061	      421.3884089289	       22.7995834696	        0.0690369810	        0.2157400083	        0.1070173849	        0.0000000000	        0.0000000000	        0.0000000000	        0.0000000000	       -1.6991531861	        0.0000000000
        1.1269998550	        0.0000000000	        0.0000000000	        0.0000000000	        0.0000000000	        0.0000000000	        0.0000000000	      -31.5879483571	      421.1045592328	       23.0352883652	        0.0679105391	        0.2157400083	        0.1070589170	        0.0000000000	        0.0000000000	        0.0000000000	        0.0000000000	       -1.6819720210	        0.0000000000
        1.1279999018	        0.0000000000	        0.0000000000	        0.0000000000	        0.0000000000	        0.0000000000	        0.0000000000	      -31.6048762759	      420.8177297390	       23.2674054501	        0.0691997712	        0.2157400083	        0.1072968459	        0.0000000000	        0.0000000000	        0.0000000000	        0.0000000000	       -1.6644665076	        0.0000000000
        1.1289999485	        0.0000000000	        0.0000000000	        0.0000000000	        0.0000000000	        0.0000000000	        0.0000000000	      -31.6222348675	      420.5274922759	       23.4953514905	        0.0694078046	        0.2157400083	        0.1077499015	        0.0000000000	        0.0000000000	        0.0000000000	        0.0000000000	       -1.6466836783	        0.0000000000
        1.1299998760	        0.0000000000	        0.0000000000	        0.0000000000	        0.0000000000	        0.0000000000	        0.0000000000	      -31.6396095914	      420.2334568260	       23.7185728183	        0.0680319950	        0.2157400083	        0.1074500784	        0.0000000000	        0.0000000000	        0.0000000000	        0.0000000000	       -1.6286741689	        0.0000000000
        1.1309999228	        0.0000000000	        0.0000000000	        0.0000000000	        0.0000000000	        0.0000000000	        0.0000000000	      -31.6565853679	      419.9352728121	       23.9365492151	        0.0681458674	        0.2157400083	        0.1074339813	        0.0000000000	        0.0000000000	        0.0000000000	        0.0000000000	       -1.6104919856	        0.0000000000
        1.1319998503	        0.0000000000	        0.0000000000	        0.0000000000	        0.0000000000	        0.0000000000	        0.0000000000	      -31.6727493138	      419.6326300759	       24.1487975856	        0.0689977146	        0.2157400083	        0.1088584026	        0.0000000000	        0.0000000000	        0.0000000000	        0.0000000000	       -1.5921942313	        0.0000000000
        1.1329998970	        0.0000000000	        0.0000000000	        0.0000000000	        0.0000000000	        0.0000000000	        0.0000000000	      -31.6876934777	      419.3252595456	       24.3548753788	        0.0685050309	        0.2157400083	        0.1082931713	        0.0000000000	        0.0000000000	        0.0000000000	        0.0000000000	       -1.5738407918	        0.0000000000
        1.1339999437	        0.0000000000	        0.0000000000	        0.0000000000	        0.0000000000	        0.0000000000	        0.0000000000	      -31.7010175432	      419.0129335914	       24.5543837180	        0.0725673217	        0.2157400083	        0.1093629981	        0.0000000000	        0.0000000000	        0.0000000000	        0.0000000000	       -1.5554939891	        0.0000000000
        1.1349998713	        0.0000000000	        0.0000000000	        0.0000000000	        0.0000000000	        0.0000000000	        0.0000000000	      -31.7123314725	      418.6954660702	       24.7469701993	        0.0690791891	        0.2157400083	        0.1077515302	        0.0000000000	        0.0000000000	        0.0000000000	        0.0000000000	       -1.5372182054	        0.0000000000
        1.1359999180	        0.0000000000	        0.0000000000	        0.0000000000	        0.0000000000	        0.0000000000	        0.0000000000	      -31.7212580604	      418.3727120663	       24.9323313206	        0.0692013890	        0.2157400083	        0.1086400640	        0.0000000000	        0.0000000000	        0.0000000000	        0.0000000000	       -1.5190794840	        0.0000000000
